#!OML:ASF H:\Dans Jumps\Project 1\Capture day 1\Session 1\subject.ASF
:FULLY-SPECIFIED
:DEGREES
201
root 0.58566 17.4376 -14.2016 4.47742 -0.389737 -1.77945
lowerback -0.988307 -0.69652 -0.0496576
upperback 2.45583 -0.98416 2.02911
thorax 3.11355 -0.519562 2.07822
lowerneck -14.0702 0.596168 -1.698
upperneck 28.4782 1.33203 -0.0909976
head 11.6025 0.401422 0.443758
rclavicle 2.18663e-015 3.97569e-015
rhumerus -18.5452 -10.6721 -83.0997
rradius 28.4049
rwrist 26.6913
rhand -18.7029 -27.3117
rfingers 7.12502
rthumb 7.59189 -57.1555
lclavicle 2.18663e-015 3.97569e-015
lhumerus -18.4781 -1.13136 87.2829
lradius 22.6983
lwrist 7.22164
lhand -24.8755 -2.89912
lfingers 7.12502
lthumb 1.63184 27.0744
rfemur -12.9396 -2.58147 20.311
rtibia 24.8577
rfoot -14.9985 -4.09742
rtoes 9.57122
lfemur -13.2333 8.50361 -18.5991
ltibia 23.5448
lfoot -13.1782 3.94206
ltoes -2.18221
202
root 0.585496 17.4329 -14.2121 4.47495 -0.390916 -1.80658
lowerback -0.87164 -0.696735 -0.0266911
upperback 2.4805 -0.984295 2.03569
thorax 3.0729 -0.519132 2.07332
lowerneck -14.0744 0.59579 -1.69065
upperneck 28.43 1.33115 -0.0985023
head 11.5848 0.401337 0.439387
rclavicle -1.0138e-014 3.18055e-014
rhumerus -18.4632 -10.5448 -83.1257
rradius 28.524
rwrist 26.5894
rhand -18.7065 -27.3095
rfingers 7.12502
rthumb 7.58842 -57.1534
lclavicle -1.0138e-014 3.18055e-014
lhumerus -18.4482 -1.20368 87.2496
lradius 22.8372
lwrist 7.31804
lhand -24.892 -2.95279
lfingers 7.12502
lthumb 1.61586 27.0208
rfemur -13.0586 -2.57323 20.3457
rtibia 25.0115
rfoot -15.0243 -4.11614
rtoes 9.49198
lfemur -13.3888 8.53669 -18.5759
ltibia 23.7595
lfoot -13.2252 3.93558
ltoes -2.27829
203
root 0.585426 17.4278 -14.2234 4.47098 -0.396666 -1.83538
lowerback -0.741979 -0.695783 -0.0029571
upperback 2.50958 -0.982782 2.04338
thorax 3.02944 -0.517894 2.06933
lowerneck -14.0704 0.596252 -1.68725
upperneck 28.3624 1.33126 -0.103173
head 11.5578 0.401856 0.436742
rclavicle -9.24349e-015 -9.54166e-015
rhumerus -18.3865 -10.4103 -83.1483
rradius 28.6498
rwrist 26.4682
rhand -18.7253 -27.3081
rfingers 7.12502
rthumb 7.57033 -57.1526
lclavicle -9.24349e-015 -9.54166e-015
lhumerus -18.4292 -1.27976 87.2145
lradius 22.9978
lwrist 7.44835
lhand -24.9142 -3.00101
lfingers 7.12502
lthumb 1.59439 26.9728
rfemur -13.1868 -2.56417 20.3817
rtibia 25.1778
rfoot -15.051 -4.13215
rtoes 9.4079
lfemur -13.5537 8.57369 -18.5514
ltibia 23.9915
lfoot -13.2774 3.92959
ltoes -2.3557
204
root 0.585468 17.4224 -14.2356 4.4677 -0.406388 -1.86761
lowerback -0.59801 -0.692821 0.0247681
upperback 2.54124 -0.978486 2.05162
thorax 2.98041 -0.515173 2.06392
lowerneck -14.0552 0.596667 -1.68652
upperneck 28.2724 1.33103 -0.106307
head 11.5199 0.402401 0.43491
rclavicle -3.72721e-015 -7.95139e-015
rhumerus -18.318 -10.2735 -83.1663
rradius 28.7799
rwrist 26.3303
rhand -18.7675 -27.308
rfingers 7.12502
rthumb 7.52961 -57.154
lclavicle -3.72721e-015 -7.95139e-015
lhumerus -18.4234 -1.36433 87.1775
lradius 23.1813
lwrist 7.6172
lhand -24.938 -3.04297
lfingers 7.12502
lthumb 1.57144 26.931
rfemur -13.3268 -2.55734 20.4211
rtibia 25.3564
rfoot -15.0775 -4.14222
rtoes 9.32602
lfemur -13.7298 8.61494 -18.524
ltibia 24.239
lfoot -13.3358 3.92283
ltoes -2.41421
205
root 0.585638 17.4166 -14.2486 4.46289 -0.418788 -1.9032
lowerback -0.440912 -0.689055 0.0546678
upperback 2.57905 -0.973055 2.06151
thorax 2.93031 -0.511891 2.05915
lowerneck -14.0389 0.598719 -1.68326
upperneck 28.1627 1.33328 -0.113113
head 11.4743 0.404087 0.431541
rclavicle 4.47266e-016 3.97569e-016
rhumerus -18.2527 -10.1303 -83.1791
rradius 28.91
rwrist 26.1782
rhand -18.8405 -27.29
rfingers 7.12502
rthumb 7.45907 -57.1385
lclavicle 4.47266e-016 3.97569e-016
lhumerus -18.4258 -1.45792 87.1386
lradius 23.385
lwrist 7.82429
lhand -24.9595 -3.07369
lfingers 7.12502
lthumb 1.55065 26.9004
rfemur -13.4755 -2.55328 20.4634
rtibia 25.5473
rfoot -15.1059 -4.14607
rtoes 9.24828
lfemur -13.9122 8.65513 -18.4931
ltibia 24.499
lfoot -13.3986 3.91917
ltoes -2.45242
206
root 0.585906 17.4106 -14.2626 4.46165 -0.433545 -1.94018
lowerback -0.273369 -0.684685 0.0846993
upperback 2.62008 -0.966657 2.07224
thorax 2.87764 -0.508146 2.05528
lowerneck -14.0197 0.603332 -1.6728
upperneck 28.0356 1.33929 -0.12776
head 11.4215 0.407445 0.424481
rclavicle 7.15625e-015 -2.38542e-015
rhumerus -18.1921 -9.9891 -83.1842
rradius 29.0349
rwrist 26.029
rhand -18.9305 -27.2621
rfingers 7.12502
rthumb 7.3722 -57.1137
lclavicle 7.15625e-015 -2.38542e-015
lhumerus -18.4388 -1.55829 87.0971
lradius 23.6053
lwrist 8.0583
lhand -24.9877 -3.10446
lfingers 7.12502
lthumb 1.52343 26.8699
rfemur -13.6393 -2.55129 20.507
rtibia 25.7516
rfoot -15.1363 -4.14421
rtoes 9.18286
lfemur -14.1066 8.69776 -18.4623
ltibia 24.7696
lfoot -13.465 3.91744
ltoes -2.49572
207
root 0.586297 17.4043 -14.2775 4.4648 -0.448883 -1.97486
lowerback -0.0998196 -0.680546 0.110409
upperback 2.66577 -0.960393 2.08314
thorax 2.82651 -0.504608 2.05407
lowerneck -14.0071 0.610467 -1.65262
upperneck 27.8997 1.34956 -0.153367
head 11.3671 0.412456 0.412336
rclavicle 1.33186e-014 -2.0276e-014
rhumerus -18.1294 -9.85485 -83.1818
rradius 29.147
rwrist 25.8884
rhand -19.0187 -27.2525
rfingers 7.12502
rthumb 7.28713 -57.107
lclavicle 1.33186e-014 -2.0276e-014
lhumerus -18.4599 -1.66631 87.0526
lradius 23.8404
lwrist 8.31607
lhand -25.012 -3.1112
lfingers 7.12502
lthumb 1.5 26.8633
rfemur -13.819 -2.55392 20.5479
rtibia 25.9703
rfoot -15.1689 -4.13703
rtoes 9.12005
lfemur -14.3131 8.74238 -18.4361
ltibia 25.049
lfoot -13.5334 3.9164
ltoes -2.54741
208
root 0.586792 17.3978 -14.2933 4.47572 -0.466148 -2.0043
lowerback 0.0765853 -0.675548 0.129438
upperback 2.71524 -0.952788 2.093
thorax 2.77773 -0.500575 2.05556
lowerneck -14.0042 0.620638 -1.62031
upperneck 27.7582 1.36403 -0.189165
head 11.3127 0.419405 0.395014
rclavicle -2.09221e-014 1.27222e-014
rhumerus -18.0689 -9.73592 -83.1677
rradius 29.245
rwrist 25.7743
rhand -19.1033 -27.2424
rfingers 7.12502
rthumb 7.20541 -57.0997
lclavicle -2.09221e-014 1.27222e-014
lhumerus -18.4904 -1.77918 87.0046
lradius 24.0885
lwrist 8.58776
lhand -25.0288 -3.08798
lfingers 7.12502
lthumb 1.48376 26.8866
rfemur -14.0195 -2.55784 20.583
rtibia 26.2064
rfoot -15.2061 -4.12794
rtoes 9.05377
lfemur -14.5355 8.79092 -18.4181
ltibia 25.3365
lfoot -13.6031 3.91519
ltoes -2.60524
209
root 0.587369 17.3911 -14.3099 4.49805 -0.482562 -2.02769
lowerback 0.252975 -0.670397 0.139382
upperback 2.7671 -0.944831 2.10293
thorax 2.7316 -0.496606 2.06222
lowerneck -14.0124 0.633753 -1.57221
upperneck 27.6132 1.38286 -0.239392
head 11.2596 0.428183 0.370401
rclavicle 4.12478e-015 -1.98785e-014
rhumerus -18.0132 -9.63508 -83.1382
rradius 29.3296
rwrist 25.6951
rhand -19.1807 -27.231
rfingers 7.12502
rthumb 7.13077 -57.0909
lclavicle 4.12478e-015 -1.98785e-014
lhumerus -18.5308 -1.8863 86.9538
lradius 24.3478
lwrist 8.85816
lhand -25.0402 -3.02479
lfingers 7.12502
lthumb 1.47274 26.9499
rfemur -14.2451 -2.56492 20.6116
rtibia 26.462
rfoot -15.2505 -4.11723
rtoes 8.9864
lfemur -14.7785 8.84493 -18.4099
ltibia 25.6335
lfoot -13.6751 3.90858
ltoes -2.66332
210
root 0.588009 17.3841 -14.3273 4.53612 -0.498615 -2.03998
lowerback 0.427071 -0.663516 0.136167
upperback 2.81902 -0.934359 2.1109
thorax 2.68694 -0.491672 2.07425
lowerneck -14.0302 0.647403 -1.51641
upperneck 27.4676 1.40182 -0.294056
head 11.2085 0.437244 0.342981
rclavicle 1.04362e-015 -8.34896e-015
rhumerus -17.9722 -9.55919 -83.0899
rradius 29.4083
rwrist 25.6553
rhand -19.2531 -27.1979
rfingers 7.12502
rthumb 7.06079 -57.0602
lclavicle 1.04362e-015 -8.34896e-015
lhumerus -18.5791 -1.9917 86.9006
lradius 24.6081
lwrist 9.11658
lhand -25.0493 -2.94444
lfingers 7.12502
lthumb 1.46399 27.0303
rfemur -14.5036 -2.5768 20.6293
rtibia 26.7398
rfoot -15.3008 -4.10968
rtoes 8.89046
lfemur -15.0497 8.90661 -18.418
ltibia 25.9435
lfoot -13.7494 3.89596
ltoes -2.71906
211
root 0.588636 17.3765 -14.3455 4.59089 -0.518259 -2.04639
lowerback 0.598744 -0.653788 0.123294
upperback 2.86944 -0.920008 2.11917
thorax 2.64215 -0.485023 2.09203
lowerneck -14.0504 0.661889 -1.45376
upperneck 27.3142 1.42084 -0.351705
head 11.1551 0.446742 0.313366
rclavicle -1.4561e-014 1.51076e-014
rhumerus -17.9528 -9.50416 -83.0222
rradius 29.4886
rwrist 25.6503
rhand -19.3193 -27.1571
rfingers 7.12502
rthumb 6.9969 -57.0214
lclavicle -1.4561e-014 1.51076e-014
lhumerus -18.6375 -2.09066 86.8456
lradius 24.866
lwrist 9.3519
lhand -25.0603 -2.84284
lfingers 7.12502
lthumb 1.45329 27.132
rfemur -14.7958 -2.5862 20.6413
rtibia 27.0414
rfoot -15.3623 -4.10211
rtoes 8.80028
lfemur -15.3524 8.9779 -18.4365
ltibia 26.2715
lfoot -13.8283 3.87962
ltoes -2.77705
